<svg width="16" height="16" viewBox="0 0 16 16" fill="none" xmlns="http://www.w3.org/2000/svg">
<path d="M8.18639 5.88858L8.00039 6.07458L7.81439 5.88858C7.64418 5.71624 7.44144 5.57941 7.21794 5.48602C6.99444 5.39263 6.75462 5.34454 6.51239 5.34454C6.27016 5.34454 6.03035 5.39263 5.80685 5.48602C5.58334 5.57941 5.38061 5.71624 5.21039 5.88858C5.03795 6.0588 4.90104 6.26158 4.80759 6.48514C4.71414 6.70871 4.66602 6.9486 4.66602 7.19091C4.66602 7.43322 4.71414 7.67311 4.80759 7.89668C4.90104 8.12024 5.03795 8.32302 5.21039 8.49324L8.00039 11.2839L10.7911 8.49324C10.9635 8.32302 11.1004 8.12024 11.1939 7.89668C11.2873 7.67311 11.3354 7.43322 11.3354 7.19091C11.3354 6.9486 11.2873 6.70871 11.1939 6.48514C11.1004 6.26158 10.9635 6.0588 10.7911 5.88858C10.6208 5.71622 10.418 5.57937 10.1944 5.48597C9.97088 5.39258 9.73101 5.34448 9.48873 5.34448C9.24644 5.34448 9.00657 5.39258 8.78302 5.48597C8.55946 5.57937 8.35667 5.71622 8.18639 5.88858Z" fill="#C3404E"/>
<path d="M7.99967 1.33325C4.32367 1.33325 1.33301 4.32392 1.33301 7.99992C1.33301 11.6759 4.32367 14.6666 7.99967 14.6666C11.6757 14.6666 14.6663 11.6759 14.6663 7.99992C14.6663 4.32392 11.6757 1.33325 7.99967 1.33325ZM7.99967 13.3333C5.05901 13.3333 2.66634 10.9406 2.66634 7.99992C2.66634 5.05925 5.05901 2.66659 7.99967 2.66659C10.9403 2.66659 13.333 5.05925 13.333 7.99992C13.333 10.9406 10.9403 13.3333 7.99967 13.3333Z" fill="#C3404E"/>
</svg>
