<svg width="42" height="42" viewBox="0 0 42 42" fill="none" xmlns="http://www.w3.org/2000/svg">
<circle cx="21" cy="21" r="20" fill="#C3404E" stroke="#F2F2F2" stroke-width="2"/>
<path fill-rule="evenodd" clip-rule="evenodd" d="M18.429 17.969H22.143V19.819C22.678 18.755 24.05 17.799 26.111 17.799C30.062 17.799 31 19.917 31 23.803V31H27V24.688C27 22.475 26.465 21.227 25.103 21.227C23.214 21.227 22.429 22.572 22.429 24.687V31H18.429V17.969ZM11.57 30.83H15.57V17.799H11.57V30.83ZM16.143 13.55C16.1431 13.8853 16.0767 14.2172 15.9474 14.5266C15.8181 14.8359 15.6287 15.1165 15.39 15.352C14.9064 15.8326 14.2518 16.1017 13.57 16.1C12.8894 16.0995 12.2363 15.8312 11.752 15.353C11.5142 15.1167 11.3254 14.8358 11.1963 14.5264C11.0673 14.217 11.0006 13.8852 11 13.55C11 12.873 11.27 12.225 11.753 11.747C12.2369 11.2682 12.8902 10.9997 13.571 11C14.253 11 14.907 11.269 15.39 11.747C15.872 12.225 16.143 12.873 16.143 13.55Z" fill="white"/>
</svg>
