<svg width="108" height="43" viewBox="0 0 108 43" fill="none" xmlns="http://www.w3.org/2000/svg">
<rect width="108" height="43" fill="#FFFBFB"/>
<path d="M19.527 27H17.95V13.7H19.527V19.818H25.702V13.7H27.279V27H25.702V20.008H19.527V27ZM36.8326 27C35.9713 27 35.3823 26.8353 35.0656 26.506C34.7743 26.2273 34.6286 25.9867 34.6286 25.784V25.385C34.0079 26.5123 33.0136 27.076 31.6456 27.076C30.0496 27.076 29.1439 26.354 28.9286 24.91C28.9033 24.758 28.8906 24.606 28.8906 24.454C28.8906 24.2893 28.9159 24.112 28.9666 23.922C29.0173 23.732 29.1629 23.523 29.4036 23.295C29.8849 22.839 30.9426 22.5603 32.5766 22.459C32.9819 22.421 33.3556 22.402 33.6976 22.402C34.0396 22.402 34.3499 22.4147 34.6286 22.44V19.286C34.6033 19.2733 34.6033 19.2163 34.6286 19.115C34.6539 19.001 34.6286 18.8617 34.5526 18.697C34.4893 18.5197 34.4006 18.3487 34.2866 18.184C34.1726 18.0193 33.9699 17.88 33.6786 17.766C33.3873 17.6393 33.0073 17.576 32.5386 17.576C32.0699 17.576 31.5189 17.6647 30.8856 17.842C30.2649 18.0067 29.8089 18.1713 29.5176 18.336L29.4416 18.203C30.5689 17.6837 31.7153 17.424 32.8806 17.424C34.1853 17.424 35.0466 17.6583 35.4646 18.127C35.7939 18.4943 35.9586 18.8807 35.9586 19.286V25.651C35.9586 26.0183 36.0283 26.3033 36.1676 26.506C36.3196 26.696 36.4716 26.7973 36.6236 26.81L36.8326 26.848H37.4216V27H36.8326ZM31.9496 26.924C32.6209 26.924 33.2226 26.696 33.7546 26.24C34.2993 25.7713 34.5906 25.3217 34.6286 24.891V22.592C34.2866 22.5667 33.9383 22.554 33.5836 22.554C33.2416 22.554 32.8996 22.573 32.5576 22.611C31.5949 22.725 30.9679 22.9403 30.6766 23.257C30.3853 23.5737 30.2396 24.0107 30.2396 24.568C30.2396 24.6693 30.2459 24.7833 30.2586 24.91C30.3726 26.2527 30.9363 26.924 31.9496 26.924ZM38.467 22.592C38.467 20.9453 38.866 19.6723 39.664 18.773C40.462 17.8737 41.659 17.424 43.255 17.424C44.0024 17.424 44.756 17.614 45.516 17.994V12.769H46.846V25.651C46.846 26.0183 46.9157 26.3033 47.055 26.506C47.207 26.696 47.359 26.7973 47.511 26.81L47.72 26.848H48.309V27H47.15C46.6307 27 46.2317 26.886 45.953 26.658C45.687 26.43 45.5477 26.202 45.535 25.974L45.516 25.651V25.347C45.2754 25.7903 44.8764 26.183 44.319 26.525C43.7617 26.867 43.103 27.038 42.343 27.038C39.759 26.9747 38.467 25.4927 38.467 22.592ZM42.362 26.886C43.2107 26.886 43.939 26.658 44.547 26.202C45.155 25.746 45.478 25.2963 45.516 24.853V18.165C44.6167 17.7723 43.844 17.576 43.198 17.576C42.0707 17.576 41.222 18.0193 40.652 18.906C40.082 19.78 39.797 21.0087 39.797 22.592C39.797 25.4547 40.652 26.886 42.362 26.886ZM51.3894 27C50.8701 27 50.4711 26.886 50.1924 26.658C49.9264 26.43 49.7871 26.202 49.7744 25.974L49.7554 25.651V17.5H51.0854V25.651C51.0854 26.0183 51.1551 26.3033 51.2944 26.506C51.4464 26.696 51.5921 26.7973 51.7314 26.81L51.9594 26.848H52.5484V27H51.3894ZM49.8694 15.372C49.7174 15.22 49.6414 15.03 49.6414 14.802C49.6414 14.574 49.7174 14.384 49.8694 14.232C50.0214 14.0673 50.2114 13.985 50.4394 13.985C50.6674 13.985 50.8574 14.0673 51.0094 14.232C51.1741 14.384 51.2564 14.574 51.2564 14.802C51.2564 15.03 51.1741 15.22 51.0094 15.372C50.8574 15.524 50.6674 15.6 50.4394 15.6C50.2114 15.6 50.0214 15.524 49.8694 15.372ZM55.2767 30.401C54.8714 31.3003 54.371 31.75 53.7757 31.75C53.5097 31.75 53.1994 31.7057 52.8447 31.617V31.465C53.136 31.541 53.3957 31.579 53.6237 31.579C54.2697 31.579 54.7637 31.1863 55.1057 30.401L56.7017 27H56.6827L53.1487 17.5H54.4787L57.4237 25.423L60.3307 19.4C60.4827 19.134 60.5587 18.8173 60.5587 18.45C60.5587 18.0827 60.4574 17.804 60.2547 17.614L60.3687 17.5C60.4194 17.5253 60.4827 17.6013 60.5587 17.728C60.6474 17.8547 60.698 17.9687 60.7107 18.07C60.736 18.1713 60.7487 18.2663 60.7487 18.355C60.7487 18.697 60.6727 19.0453 60.5207 19.4L56.8727 27L55.2767 30.401ZM69.6558 27C68.7945 27 68.2055 26.8353 67.8888 26.506C67.5975 26.2273 67.4518 25.9867 67.4518 25.784V25.385C66.8312 26.5123 65.8368 27.076 64.4688 27.076C62.8728 27.076 61.9672 26.354 61.7518 24.91C61.7265 24.758 61.7138 24.606 61.7138 24.454C61.7138 24.2893 61.7392 24.112 61.7898 23.922C61.8405 23.732 61.9862 23.523 62.2268 23.295C62.7082 22.839 63.7658 22.5603 65.3998 22.459C65.8052 22.421 66.1788 22.402 66.5208 22.402C66.8628 22.402 67.1732 22.4147 67.4518 22.44V19.286C67.4265 19.2733 67.4265 19.2163 67.4518 19.115C67.4772 19.001 67.4518 18.8617 67.3758 18.697C67.3125 18.5197 67.2238 18.3487 67.1098 18.184C66.9958 18.0193 66.7932 17.88 66.5018 17.766C66.2105 17.6393 65.8305 17.576 65.3618 17.576C64.8932 17.576 64.3422 17.6647 63.7088 17.842C63.0882 18.0067 62.6322 18.1713 62.3408 18.336L62.2648 18.203C63.3922 17.6837 64.5385 17.424 65.7038 17.424C67.0085 17.424 67.8698 17.6583 68.2878 18.127C68.6172 18.4943 68.7818 18.8807 68.7818 19.286V25.651C68.7818 26.0183 68.8515 26.3033 68.9908 26.506C69.1428 26.696 69.2948 26.7973 69.4468 26.81L69.6558 26.848H70.2448V27H69.6558ZM64.7728 26.924C65.4442 26.924 66.0458 26.696 66.5778 26.24C67.1225 25.7713 67.4138 25.3217 67.4518 24.891V22.592C67.1098 22.5667 66.7615 22.554 66.4068 22.554C66.0648 22.554 65.7228 22.573 65.3808 22.611C64.4182 22.725 63.7912 22.9403 63.4998 23.257C63.2085 23.5737 63.0628 24.0107 63.0628 24.568C63.0628 24.6693 63.0692 24.7833 63.0818 24.91C63.1958 26.2527 63.7595 26.924 64.7728 26.924ZM71.5664 17.652V17.5H71.9654V15.6H73.2954V17.5H76.2024V17.652H73.2954V24.568C73.2954 25.3913 73.384 25.9867 73.5614 26.354C73.7514 26.7213 74.1377 26.905 74.7204 26.905C75.3157 26.905 75.9174 26.7847 76.5254 26.544L76.5824 26.696C75.949 26.9367 75.2207 27.057 74.3974 27.057C73.5867 27.057 72.9787 26.8923 72.5734 26.563C72.168 26.221 71.9654 25.5497 71.9654 24.549V17.652H71.5664ZM79.3699 27C78.8505 27 78.4515 26.886 78.1729 26.658C77.9069 26.43 77.7675 26.202 77.7549 25.974L77.7359 25.651V17.5H79.0659V25.651C79.0659 26.0183 79.1355 26.3033 79.2749 26.506C79.4269 26.696 79.5725 26.7973 79.7119 26.81L79.9399 26.848H80.5289V27H79.3699ZM77.8499 15.372C77.6979 15.22 77.6219 15.03 77.6219 14.802C77.6219 14.574 77.6979 14.384 77.8499 14.232C78.0019 14.0673 78.1919 13.985 78.4199 13.985C78.6479 13.985 78.8379 14.0673 78.9899 14.232C79.1545 14.384 79.2369 14.574 79.2369 14.802C79.2369 15.03 79.1545 15.22 78.9899 15.372C78.8379 15.524 78.6479 15.6 78.4199 15.6C78.1919 15.6 78.0019 15.524 77.8499 15.372Z" fill="#B22727"/>
<path d="M26.5 14V11L27.5 9.5L28.5 8.5" stroke="#B22727" stroke-width="1.6"/>
<path d="M18.8 27L18.8135 30L17.8202 31.5044L16.8247 32.5089" stroke="#B22727" stroke-width="1.6"/>
<path d="M58 14.5C61.5 8.99988 68.2045 4.69785 71 3.49988C74.5 2 83.3352 0.616409 87 11C90 19.5 84.5 27 75.5 33.0001L63.5 39" stroke="#B22727"/>
<path d="M58 14L55 10" stroke="#B22727"/>
</svg>
