<svg width="99" height="43" viewBox="0 0 99 43" fill="none" xmlns="http://www.w3.org/2000/svg">
<rect width="99" height="43" fill="#DA2F47"/>
<path d="M33.1348 26.7949C33.1348 26.7448 33.1416 26.6787 33.1553 26.5967C33.1735 26.5101 33.194 26.4235 33.2168 26.3369C33.2396 26.2458 33.2624 26.1592 33.2852 26.0771C33.3125 25.9951 33.333 25.929 33.3467 25.8789L36.1152 16.7939C36.138 16.762 36.1631 16.7347 36.1904 16.7119C36.2132 16.6891 36.2428 16.6709 36.2793 16.6572C36.3203 16.639 36.3682 16.6299 36.4229 16.6299H36.5391C36.6393 16.6299 36.7236 16.6481 36.792 16.6846C36.8604 16.7165 36.915 16.762 36.9561 16.8213C36.9971 16.876 37.0244 16.9421 37.0381 17.0195C37.0563 17.0924 37.0654 17.1722 37.0654 17.2588C37.0654 17.3317 37.0586 17.4092 37.0449 17.4912C37.0358 17.5687 37.0244 17.6462 37.0107 17.7236C36.9971 17.7965 36.9811 17.8649 36.9629 17.9287C36.9492 17.9925 36.9378 18.0426 36.9287 18.0791L35.5068 22.9326L36.1562 22.8711C36.8809 22.7116 37.6191 22.5475 38.3711 22.3789C39.1276 22.2057 39.8682 22.0394 40.5928 21.8799C40.6748 21.8389 40.7477 21.7546 40.8115 21.627C40.8753 21.4993 40.9368 21.333 40.9961 21.1279C41.0599 20.9229 41.1283 20.6836 41.2012 20.4102C41.2741 20.1322 41.363 19.8245 41.4678 19.4873L41.6113 19.0156C41.6706 18.7878 41.723 18.5553 41.7686 18.3184C41.8187 18.0768 41.8779 17.8581 41.9463 17.6621C42.0146 17.4661 42.1012 17.3066 42.2061 17.1836C42.3109 17.056 42.4453 16.9922 42.6094 16.9922C42.8418 16.9922 43.0218 17.0674 43.1494 17.2178C43.277 17.3636 43.3408 17.5482 43.3408 17.7715C43.3408 17.9128 43.2861 18.1497 43.1768 18.4824C43.0719 18.8151 42.9398 19.2207 42.7803 19.6992C42.721 19.877 42.6572 20.0592 42.5889 20.2461C42.5205 20.4329 42.4567 20.613 42.3975 20.7861C42.3428 20.9548 42.2972 21.112 42.2607 21.2578C42.2243 21.3991 42.2061 21.513 42.2061 21.5996C42.2061 21.6816 42.2174 21.7637 42.2402 21.8457C42.263 21.9232 42.2744 22.0075 42.2744 22.0986C42.2744 22.3037 42.2197 22.4746 42.1104 22.6113C42.001 22.748 41.8506 22.887 41.6592 23.0283C41.6501 23.0648 41.6364 23.1217 41.6182 23.1992C41.6045 23.2767 41.5863 23.3564 41.5635 23.4385L41.4746 23.7871C41.4108 24.0378 41.3561 24.2884 41.3105 24.5391C41.2695 24.7897 41.2308 25.0381 41.1943 25.2842C41.1624 25.5303 41.126 25.7764 41.085 26.0225C41.0485 26.2686 41.0007 26.5124 40.9414 26.7539C40.9186 26.8451 40.8776 26.9271 40.8184 27C40.7637 27.0684 40.6976 27.1276 40.6201 27.1777C40.5472 27.2279 40.4697 27.2666 40.3877 27.2939C40.3057 27.3213 40.2282 27.335 40.1553 27.335C40.0459 27.335 39.957 27.3099 39.8887 27.2598C39.8203 27.2096 39.7656 27.1504 39.7246 27.082C39.6882 27.0137 39.6631 26.943 39.6494 26.8701C39.6357 26.7972 39.6289 26.7357 39.6289 26.6855C39.6289 26.6309 39.6357 26.542 39.6494 26.4189C39.6676 26.2913 39.6904 26.1432 39.7178 25.9746C39.7451 25.806 39.777 25.6237 39.8135 25.4277C39.8499 25.2318 39.8864 25.0335 39.9229 24.833C40.0094 24.3682 40.1097 23.86 40.2236 23.3086H40.1758C40.0573 23.3086 39.9297 23.3223 39.793 23.3496C39.6562 23.3724 39.4922 23.4066 39.3008 23.4521C39.2142 23.4795 39.0843 23.516 38.9111 23.5615C38.7425 23.6071 38.5488 23.6595 38.3301 23.7188C38.1113 23.778 37.8743 23.8418 37.6191 23.9102C37.3685 23.9785 37.1178 24.0469 36.8672 24.1152L35.0146 24.6211C34.9281 24.7988 34.846 24.9925 34.7686 25.2021C34.6956 25.4072 34.6273 25.6169 34.5635 25.8311C34.4997 26.0407 34.4404 26.248 34.3857 26.4531C34.3356 26.6582 34.2878 26.8519 34.2422 27.0342C34.2285 27.0843 34.1989 27.139 34.1533 27.1982C34.1123 27.2575 34.0622 27.3122 34.0029 27.3623C33.9482 27.4124 33.889 27.4535 33.8252 27.4854C33.766 27.5173 33.709 27.5332 33.6543 27.5332C33.554 27.5332 33.4697 27.5104 33.4014 27.4648C33.3376 27.4238 33.2852 27.3669 33.2441 27.2939C33.2031 27.2256 33.1735 27.1458 33.1553 27.0547C33.1416 26.9681 33.1348 26.8815 33.1348 26.7949ZM46.8613 26.7061C46.8613 26.5739 46.8773 26.4167 46.9092 26.2344C46.9411 26.0475 46.957 25.8174 46.957 25.5439C46.8066 25.6533 46.6403 25.7832 46.458 25.9336C46.2757 26.084 46.0866 26.2275 45.8906 26.3643C45.6947 26.501 45.4987 26.6172 45.3027 26.7129C45.1113 26.804 44.9313 26.8496 44.7627 26.8496C44.626 26.8496 44.4961 26.8291 44.373 26.7881C44.25 26.7471 44.1452 26.6924 44.0586 26.624C43.8171 26.4326 43.6416 26.2412 43.5322 26.0498C43.4274 25.8584 43.375 25.6351 43.375 25.3799C43.375 25.266 43.3841 25.1475 43.4023 25.0244C43.4251 24.9014 43.457 24.7601 43.498 24.6006C43.6712 23.8805 43.9674 23.2152 44.3867 22.6045C44.8105 21.9893 45.3346 21.4652 45.959 21.0322C46.2005 20.8636 46.4421 20.7565 46.6836 20.7109C46.9251 20.6608 47.1644 20.6357 47.4014 20.6357C47.5062 20.6357 47.6224 20.6426 47.75 20.6562C47.8822 20.6699 48.0007 20.6836 48.1055 20.6973C48.2103 20.6745 48.2946 20.6585 48.3584 20.6494C48.4268 20.6403 48.4974 20.6357 48.5703 20.6357C48.707 20.6357 48.821 20.654 48.9121 20.6904C49.0033 20.7269 49.0762 20.777 49.1309 20.8408C49.1855 20.9001 49.2243 20.9707 49.2471 21.0527C49.2744 21.1302 49.2881 21.2122 49.2881 21.2988C49.2881 21.4173 49.2699 21.5312 49.2334 21.6406C49.1969 21.7454 49.1605 21.8525 49.124 21.9619L48.2217 25.5645C48.2035 25.7604 48.1875 25.9404 48.1738 26.1045C48.1602 26.2686 48.1328 26.4212 48.0918 26.5625C48.0781 26.6035 48.0599 26.6559 48.0371 26.7197C48.0189 26.779 47.987 26.8382 47.9414 26.8975C47.8958 26.9521 47.8389 27 47.7705 27.041C47.7021 27.082 47.6133 27.1025 47.5039 27.1025C47.3626 27.1025 47.2487 27.0934 47.1621 27.0752C47.0801 27.057 47.0163 27.0319 46.9707 27C46.9251 26.9635 46.8955 26.9225 46.8818 26.877C46.8682 26.8268 46.8613 26.7699 46.8613 26.7061ZM44.5918 24.6416C44.5736 24.7054 44.5531 24.7965 44.5303 24.915C44.512 25.0335 44.5029 25.152 44.5029 25.2705C44.5029 25.3936 44.5212 25.5052 44.5576 25.6055C44.5941 25.7012 44.6738 25.749 44.7969 25.749C44.9883 25.749 45.166 25.708 45.3301 25.626C45.4987 25.5394 45.6559 25.4368 45.8018 25.3184C45.9977 25.1589 46.196 24.9811 46.3965 24.7852C46.6016 24.5846 46.793 24.375 46.9707 24.1562C47.153 23.9375 47.3125 23.7142 47.4492 23.4863C47.5905 23.2539 47.693 23.0238 47.7568 22.7959C47.7933 22.6637 47.8229 22.5111 47.8457 22.3379C47.873 22.1647 47.8867 22.0098 47.8867 21.873C47.8867 21.8138 47.873 21.7568 47.8457 21.7021C47.8184 21.6429 47.766 21.6133 47.6885 21.6133C47.4652 21.6133 47.2396 21.6566 47.0117 21.7432C46.7884 21.8298 46.5719 21.946 46.3623 22.0918C46.1527 22.2376 45.9521 22.4108 45.7607 22.6113C45.5739 22.8073 45.403 23.0192 45.248 23.2471C45.0931 23.4704 44.9587 23.7028 44.8447 23.9443C44.7354 24.1813 44.651 24.4137 44.5918 24.6416ZM50.2588 24.6553C50.318 24.4092 50.3955 24.1631 50.4912 23.917C50.5915 23.6709 50.7145 23.4271 50.8604 23.1855C51.0062 22.944 51.1794 22.7093 51.3799 22.4814C51.5804 22.249 51.8151 22.028 52.084 21.8184C52.2663 21.6725 52.4577 21.5358 52.6582 21.4082C52.8633 21.276 53.0706 21.1621 53.2803 21.0664C53.4899 20.9707 53.6995 20.8955 53.9092 20.8408C54.1234 20.7816 54.333 20.752 54.5381 20.752C54.6885 20.752 54.8206 20.7656 54.9346 20.793C55.0531 20.8158 55.1647 20.8499 55.2695 20.8955C55.3151 20.736 55.4359 20.3076 55.6318 19.6104C55.8324 18.9131 56.0762 17.9424 56.3633 16.6982C56.4134 16.5752 56.484 16.4727 56.5752 16.3906C56.6663 16.3086 56.7757 16.2676 56.9033 16.2676C56.9945 16.2676 57.0833 16.2767 57.1699 16.2949C57.2565 16.3086 57.334 16.3405 57.4023 16.3906C57.4707 16.4362 57.5254 16.5 57.5664 16.582C57.6074 16.6641 57.6279 16.7712 57.6279 16.9033L56.2539 22.3926C56.2129 22.5475 56.1742 22.7572 56.1377 23.0215C56.1012 23.2812 56.0671 23.557 56.0352 23.8486C56.0033 24.1403 55.9782 24.4297 55.96 24.7168C55.9417 24.9993 55.9326 25.2432 55.9326 25.4482C55.9326 25.7035 55.903 25.9564 55.8438 26.207C55.8164 26.3164 55.7868 26.4098 55.7549 26.4873C55.7275 26.5602 55.6888 26.6217 55.6387 26.6719C55.5885 26.7174 55.5247 26.7516 55.4473 26.7744C55.3743 26.7926 55.2809 26.8018 55.167 26.8018C55.0348 26.8018 54.9323 26.7881 54.8594 26.7607C54.7865 26.7334 54.7318 26.6969 54.6953 26.6514C54.6589 26.6012 54.6361 26.5465 54.627 26.4873C54.6224 26.4235 54.6178 26.3574 54.6133 26.2891C54.6133 26.2161 54.6087 26.1432 54.5996 26.0703C54.5951 25.9928 54.5768 25.9199 54.5449 25.8516C54.4902 25.888 54.415 25.9359 54.3193 25.9951C54.2236 26.0544 54.1257 26.1159 54.0254 26.1797C53.9297 26.2389 53.8385 26.2959 53.752 26.3506C53.6654 26.4007 53.6016 26.4372 53.5605 26.46C53.4557 26.5192 53.3372 26.583 53.2051 26.6514C53.0729 26.7152 52.9294 26.7767 52.7744 26.8359C52.624 26.8906 52.4645 26.9362 52.2959 26.9727C52.1318 27.0091 51.9655 27.0273 51.7969 27.0273C51.5918 27.0273 51.3913 26.9932 51.1953 26.9248C51.0039 26.8564 50.8307 26.7516 50.6758 26.6104C50.5254 26.4691 50.4046 26.2913 50.3135 26.0771C50.2223 25.8584 50.1768 25.6032 50.1768 25.3115C50.1768 25.2067 50.1813 25.1042 50.1904 25.0039C50.2041 24.8991 50.2269 24.7829 50.2588 24.6553ZM51.4414 24.6006C51.4049 24.7373 51.3867 24.8695 51.3867 24.9971C51.3867 25.1292 51.3981 25.2546 51.4209 25.373C51.4437 25.487 51.4847 25.5872 51.5439 25.6738C51.6077 25.7604 51.6898 25.8311 51.79 25.8857C51.8949 25.9359 52.0293 25.9609 52.1934 25.9609C52.2845 25.9609 52.3825 25.945 52.4873 25.9131C52.5921 25.8812 52.6947 25.8424 52.7949 25.7969C52.8997 25.7467 52.9954 25.6966 53.082 25.6465C53.1732 25.5918 53.2507 25.5439 53.3145 25.5029C53.4876 25.389 53.6471 25.2773 53.793 25.168C53.9434 25.0586 54.0778 24.9401 54.1963 24.8125C54.3148 24.6849 54.4173 24.5436 54.5039 24.3887C54.5951 24.2292 54.668 24.0469 54.7227 23.8418C54.7682 23.6595 54.807 23.4932 54.8389 23.3428C54.8753 23.1924 54.9072 23.0465 54.9346 22.9053C54.9619 22.7594 54.987 22.6113 55.0098 22.4609C55.0326 22.3105 55.0553 22.1442 55.0781 21.9619C55.0553 21.9346 55.0234 21.9095 54.9824 21.8867C54.946 21.8594 54.889 21.8457 54.8115 21.8457C54.6292 21.8457 54.4287 21.8776 54.21 21.9414C53.9912 22.0007 53.7656 22.0872 53.5332 22.2012C53.3053 22.3151 53.0798 22.4541 52.8564 22.6182C52.6377 22.7822 52.4326 22.9668 52.2412 23.1719C52.0544 23.3724 51.8903 23.5934 51.749 23.835C51.6077 24.0765 51.5052 24.3317 51.4414 24.6006ZM57.9629 25.749C58.0312 25.4847 58.1133 25.1771 58.209 24.8262C58.3047 24.4753 58.4049 24.1038 58.5098 23.7119C58.6191 23.32 58.7285 22.9189 58.8379 22.5088C58.9473 22.0986 59.0498 21.6999 59.1455 21.3125C59.1501 21.2943 59.166 21.2646 59.1934 21.2236C59.2207 21.1781 59.2594 21.1348 59.3096 21.0938C59.3597 21.0482 59.4235 21.0094 59.501 20.9775C59.5785 20.9456 59.6696 20.9297 59.7744 20.9297C59.8519 20.9297 59.9271 20.9388 60 20.957C60.0729 20.9707 60.1367 20.9935 60.1914 21.0254C60.2507 21.0573 60.2962 21.1006 60.3281 21.1553C60.3646 21.2054 60.3828 21.2646 60.3828 21.333C60.3828 21.3467 60.3828 21.3626 60.3828 21.3809C60.3828 21.3945 60.3805 21.4082 60.376 21.4219L60.1846 22.1465C59.9704 22.9577 59.7516 23.7712 59.5283 24.5869C59.3096 25.4027 59.0954 26.2207 58.8857 27.041C58.8766 27.0684 58.863 27.1025 58.8447 27.1436C58.8265 27.1846 58.8014 27.2256 58.7695 27.2666C58.7376 27.3076 58.6989 27.3418 58.6533 27.3691C58.6077 27.3965 58.5531 27.4102 58.4893 27.4102C58.3708 27.4102 58.266 27.3851 58.1748 27.335C58.0837 27.2894 58.0062 27.2301 57.9424 27.1572C57.8786 27.0843 57.8307 27.0046 57.7988 26.918C57.7669 26.8314 57.751 26.7493 57.751 26.6719C57.751 26.6491 57.751 26.6286 57.751 26.6104C57.751 26.5921 57.7555 26.5716 57.7646 26.5488L57.9629 25.749ZM59.7471 18.6738C59.7699 18.5781 59.8109 18.4619 59.8701 18.3252C59.9294 18.1885 60.0342 18.0654 60.1846 17.9561C60.2575 17.915 60.3464 17.8786 60.4512 17.8467C60.556 17.8102 60.6312 17.792 60.6768 17.792C60.7223 17.792 60.7679 17.8079 60.8135 17.8398C60.8636 17.8717 60.9069 17.9059 60.9434 17.9424C60.9889 17.988 61.0322 18.0381 61.0732 18.0928C61.1872 18.1019 61.2601 18.1429 61.292 18.2158C61.3285 18.2887 61.3467 18.3753 61.3467 18.4756C61.3467 18.5485 61.3398 18.6146 61.3262 18.6738C61.3125 18.7331 61.3011 18.7809 61.292 18.8174C61.2646 18.9131 61.2122 19.002 61.1348 19.084C61.0573 19.1615 60.9684 19.2298 60.8682 19.2891C60.7679 19.3438 60.6631 19.387 60.5537 19.4189C60.4443 19.4508 60.3486 19.4668 60.2666 19.4668C60.1618 19.4668 60.0798 19.4486 60.0205 19.4121C59.9658 19.3757 59.8952 19.2982 59.8086 19.1797C59.7585 19.1113 59.7288 19.0589 59.7197 19.0225C59.7152 18.9814 59.7129 18.9473 59.7129 18.9199C59.7129 18.8698 59.7152 18.8265 59.7197 18.79C59.7288 18.749 59.738 18.7103 59.7471 18.6738ZM61.4766 30.1582C61.4082 30.1582 61.3467 30.14 61.292 30.1035C61.2373 30.0671 61.1895 30.0192 61.1484 29.96C61.112 29.9007 61.0824 29.8346 61.0596 29.7617C61.0368 29.6934 61.0254 29.625 61.0254 29.5566C61.0254 29.4701 61.0368 29.3949 61.0596 29.3311C61.0824 29.2673 61.1097 29.2103 61.1416 29.1602C61.1781 29.1146 61.2145 29.0781 61.251 29.0508C61.292 29.0234 61.3285 29.0029 61.3604 28.9893C61.4697 28.9619 61.5973 28.9323 61.7432 28.9004C61.889 28.8685 62.0462 28.8206 62.2148 28.7568C62.388 28.6976 62.5703 28.6178 62.7617 28.5176C62.9577 28.4219 63.1582 28.2943 63.3633 28.1348C63.5684 27.9753 63.7826 27.7884 64.0059 27.5742C64.2337 27.3646 64.4525 27.1185 64.6621 26.8359C64.8717 26.5488 65.0677 26.223 65.25 25.8584C65.4323 25.4893 65.5827 25.0677 65.7012 24.5938C65.6146 24.6895 65.5143 24.7988 65.4004 24.9219C65.291 25.0404 65.1725 25.1634 65.0449 25.291C64.9173 25.4141 64.7852 25.5348 64.6484 25.6533C64.5117 25.7673 64.375 25.8721 64.2383 25.9678C64.1016 26.0589 63.9671 26.1318 63.835 26.1865C63.7074 26.2412 63.5866 26.2686 63.4727 26.2686C63.1673 26.2686 62.9076 26.2002 62.6934 26.0635C62.4792 25.9222 62.2809 25.6921 62.0986 25.373C62.0485 25.2819 62.0098 25.1634 61.9824 25.0176C61.9551 24.8717 61.9414 24.7236 61.9414 24.5732C61.9414 24.3271 61.9528 24.0879 61.9756 23.8555C61.9984 23.623 62.0326 23.3815 62.0781 23.1309C62.1237 22.8802 62.1761 22.6182 62.2354 22.3447C62.2992 22.0667 62.3698 21.7614 62.4473 21.4287C62.4518 21.3421 62.4587 21.2601 62.4678 21.1826C62.4769 21.1188 62.4814 21.0573 62.4814 20.998C62.486 20.9388 62.4906 20.9023 62.4951 20.8887C62.5042 20.8112 62.5293 20.7383 62.5703 20.6699C62.6159 20.6016 62.6683 20.5423 62.7275 20.4922C62.7913 20.4421 62.8574 20.4033 62.9258 20.376C62.9987 20.3486 63.0693 20.335 63.1377 20.335C63.2334 20.335 63.3291 20.3441 63.4248 20.3623C63.5205 20.376 63.5957 20.4102 63.6504 20.4648C63.7279 20.5469 63.7848 20.654 63.8213 20.7861C63.8623 20.9183 63.8828 21.0368 63.8828 21.1416C63.8828 21.1826 63.8623 21.2646 63.8213 21.3877C63.7848 21.5107 63.7301 21.6383 63.6572 21.7705C63.5479 22.1807 63.459 22.5293 63.3906 22.8164C63.3223 23.099 63.2676 23.3359 63.2266 23.5273C63.1901 23.7142 63.1628 23.8646 63.1445 23.9785C63.1309 24.0879 63.124 24.1722 63.124 24.2314C63.124 24.4775 63.165 24.6735 63.2471 24.8193C63.3291 24.9652 63.4294 25.0381 63.5479 25.0381C63.6162 25.0381 63.6937 25.0244 63.7803 24.9971C63.8714 24.9697 63.9671 24.9242 64.0674 24.8604C64.4502 24.6234 64.7783 24.3659 65.0518 24.0879C65.3298 23.8053 65.5667 23.4954 65.7627 23.1582C65.9632 22.8164 66.1341 22.4427 66.2754 22.0371C66.4212 21.6315 66.5534 21.1849 66.6719 20.6973C66.681 20.6654 66.7015 20.6335 66.7334 20.6016C66.7699 20.5697 66.8109 20.5423 66.8564 20.5195C66.9066 20.4967 66.959 20.4785 67.0137 20.4648C67.0684 20.4466 67.1208 20.4375 67.1709 20.4375C67.4124 20.4375 67.597 20.5036 67.7246 20.6357C67.8568 20.7633 67.9229 20.9365 67.9229 21.1553C67.9229 21.2373 67.9023 21.3695 67.8613 21.5518C67.8203 21.734 67.7725 21.9277 67.7178 22.1328C67.6631 22.3333 67.6061 22.527 67.5469 22.7139C67.4922 22.8962 67.4489 23.0306 67.417 23.1172L67.0889 24.0674C66.9385 24.4958 66.8018 24.89 66.6787 25.25C66.5602 25.61 66.4326 25.9473 66.2959 26.2617C66.1592 26.5716 66.0042 26.8656 65.8311 27.1436C65.6624 27.4215 65.4574 27.6927 65.2158 27.957C64.9743 28.2214 64.6872 28.4857 64.3545 28.75C64.0218 29.0189 63.6253 29.2969 63.165 29.584C62.8825 29.7526 62.6045 29.8893 62.3311 29.9941C62.0622 30.1035 61.7773 30.1582 61.4766 30.1582ZM72.2363 26.7061C72.2363 26.5739 72.2523 26.4167 72.2842 26.2344C72.3161 26.0475 72.332 25.8174 72.332 25.5439C72.1816 25.6533 72.0153 25.7832 71.833 25.9336C71.6507 26.084 71.4616 26.2275 71.2656 26.3643C71.0697 26.501 70.8737 26.6172 70.6777 26.7129C70.4863 26.804 70.3063 26.8496 70.1377 26.8496C70.001 26.8496 69.8711 26.8291 69.748 26.7881C69.625 26.7471 69.5202 26.6924 69.4336 26.624C69.1921 26.4326 69.0166 26.2412 68.9072 26.0498C68.8024 25.8584 68.75 25.6351 68.75 25.3799C68.75 25.266 68.7591 25.1475 68.7773 25.0244C68.8001 24.9014 68.832 24.7601 68.873 24.6006C69.0462 23.8805 69.3424 23.2152 69.7617 22.6045C70.1855 21.9893 70.7096 21.4652 71.334 21.0322C71.5755 20.8636 71.8171 20.7565 72.0586 20.7109C72.3001 20.6608 72.5394 20.6357 72.7764 20.6357C72.8812 20.6357 72.9974 20.6426 73.125 20.6562C73.2572 20.6699 73.3757 20.6836 73.4805 20.6973C73.5853 20.6745 73.6696 20.6585 73.7334 20.6494C73.8018 20.6403 73.8724 20.6357 73.9453 20.6357C74.082 20.6357 74.196 20.654 74.2871 20.6904C74.3783 20.7269 74.4512 20.777 74.5059 20.8408C74.5605 20.9001 74.5993 20.9707 74.6221 21.0527C74.6494 21.1302 74.6631 21.2122 74.6631 21.2988C74.6631 21.4173 74.6449 21.5312 74.6084 21.6406C74.5719 21.7454 74.5355 21.8525 74.499 21.9619L73.5967 25.5645C73.5785 25.7604 73.5625 25.9404 73.5488 26.1045C73.5352 26.2686 73.5078 26.4212 73.4668 26.5625C73.4531 26.6035 73.4349 26.6559 73.4121 26.7197C73.3939 26.779 73.362 26.8382 73.3164 26.8975C73.2708 26.9521 73.2139 27 73.1455 27.041C73.0771 27.082 72.9883 27.1025 72.8789 27.1025C72.7376 27.1025 72.6237 27.0934 72.5371 27.0752C72.4551 27.057 72.3913 27.0319 72.3457 27C72.3001 26.9635 72.2705 26.9225 72.2568 26.877C72.2432 26.8268 72.2363 26.7699 72.2363 26.7061ZM69.9668 24.6416C69.9486 24.7054 69.9281 24.7965 69.9053 24.915C69.887 25.0335 69.8779 25.152 69.8779 25.2705C69.8779 25.3936 69.8962 25.5052 69.9326 25.6055C69.9691 25.7012 70.0488 25.749 70.1719 25.749C70.3633 25.749 70.541 25.708 70.7051 25.626C70.8737 25.5394 71.0309 25.4368 71.1768 25.3184C71.3727 25.1589 71.571 24.9811 71.7715 24.7852C71.9766 24.5846 72.168 24.375 72.3457 24.1562C72.528 23.9375 72.6875 23.7142 72.8242 23.4863C72.9655 23.2539 73.068 23.0238 73.1318 22.7959C73.1683 22.6637 73.1979 22.5111 73.2207 22.3379C73.248 22.1647 73.2617 22.0098 73.2617 21.873C73.2617 21.8138 73.248 21.7568 73.2207 21.7021C73.1934 21.6429 73.141 21.6133 73.0635 21.6133C72.8402 21.6133 72.6146 21.6566 72.3867 21.7432C72.1634 21.8298 71.9469 21.946 71.7373 22.0918C71.5277 22.2376 71.3271 22.4108 71.1357 22.6113C70.9489 22.8073 70.778 23.0192 70.623 23.2471C70.4681 23.4704 70.3337 23.7028 70.2197 23.9443C70.1104 24.1813 70.026 24.4137 69.9668 24.6416ZM76.6865 24.874C76.6865 24.4912 76.7298 24.0947 76.8164 23.6846C76.903 23.2699 76.9941 22.8734 77.0898 22.4951C76.9714 22.4906 76.8506 22.4723 76.7275 22.4404C76.6045 22.4085 76.4928 22.3652 76.3926 22.3105C76.2923 22.2559 76.2103 22.1898 76.1465 22.1123C76.0827 22.0303 76.0508 21.9368 76.0508 21.832C76.0508 21.791 76.0599 21.7386 76.0781 21.6748C76.0964 21.611 76.1214 21.5495 76.1533 21.4902C76.1898 21.4264 76.2354 21.374 76.29 21.333C76.3447 21.2874 76.4062 21.2646 76.4746 21.2646H77.3906C77.4772 21.2646 77.5365 21.2282 77.5684 21.1553C77.6003 21.0778 77.6253 21.0026 77.6436 20.9297C77.7028 20.6654 77.7575 20.4375 77.8076 20.2461C77.8623 20.0501 77.9079 19.8861 77.9443 19.7539C77.9808 19.6172 78.0081 19.5078 78.0264 19.4258C78.0492 19.3392 78.0605 19.2708 78.0605 19.2207C78.0605 19.1615 78.0583 19.1045 78.0537 19.0498C78.0492 18.9951 78.0469 18.9199 78.0469 18.8242V18.7559C78.0469 18.7194 78.0492 18.6715 78.0537 18.6123C78.0628 18.5531 78.0856 18.4688 78.1221 18.3594C78.1494 18.2728 78.1995 18.1908 78.2725 18.1133C78.3454 18.0358 78.4525 17.9971 78.5938 17.9971C78.7168 17.9971 78.8216 18.0221 78.9082 18.0723C78.9948 18.1224 79.0654 18.1885 79.1201 18.2705C79.1748 18.3525 79.2158 18.446 79.2432 18.5508C79.2705 18.6556 79.2842 18.7604 79.2842 18.8652C79.2842 18.9792 79.2728 19.0817 79.25 19.1729L78.751 21.0869C78.9971 21.0459 79.2158 21.0072 79.4072 20.9707C79.5986 20.9342 79.79 20.8978 79.9814 20.8613C80.1911 20.8203 80.3711 20.7816 80.5215 20.7451C80.6764 20.7087 80.8086 20.679 80.918 20.6562C81.0273 20.6289 81.1185 20.6084 81.1914 20.5947C81.2689 20.5765 81.3327 20.5674 81.3828 20.5674C81.4557 20.5674 81.5286 20.5742 81.6016 20.5879C81.679 20.597 81.7451 20.6152 81.7998 20.6426C81.859 20.6699 81.9069 20.7087 81.9434 20.7588C81.9798 20.8089 81.998 20.875 81.998 20.957C81.998 21.0664 81.9753 21.1644 81.9297 21.251C81.8887 21.333 81.834 21.4059 81.7656 21.4697C81.6973 21.529 81.6198 21.5791 81.5332 21.6201C81.4466 21.6566 81.36 21.6839 81.2734 21.7021C81.2005 21.7158 81.1048 21.7363 80.9863 21.7637C80.8724 21.791 80.7448 21.8206 80.6035 21.8525C80.4668 21.8844 80.3232 21.9186 80.1729 21.9551C80.0225 21.9915 79.8766 22.028 79.7354 22.0645C79.5257 22.1191 79.3457 22.1647 79.1953 22.2012C79.0495 22.2376 78.9242 22.265 78.8193 22.2832C78.7145 22.3014 78.6279 22.3151 78.5596 22.3242C78.4958 22.3333 78.4434 22.3379 78.4023 22.3379C78.3158 22.5977 78.2406 22.8529 78.1768 23.1035C78.113 23.3542 78.0583 23.5889 78.0127 23.8076C77.9717 24.0218 77.9398 24.2155 77.917 24.3887C77.8988 24.5573 77.8896 24.6895 77.8896 24.7852C77.8896 24.9082 77.901 25.0267 77.9238 25.1406C77.9466 25.25 77.9854 25.3457 78.04 25.4277C78.0947 25.5098 78.1676 25.5758 78.2588 25.626C78.3545 25.6715 78.473 25.6943 78.6143 25.6943C78.8558 25.6943 79.0928 25.6283 79.3252 25.4961C79.5576 25.3639 79.7786 25.1976 79.9883 24.9971C80.2025 24.792 80.403 24.5687 80.5898 24.3271C80.7812 24.0856 80.9567 23.8555 81.1162 23.6367C81.1709 23.5547 81.2415 23.5137 81.3281 23.5137C81.3555 23.5137 81.3874 23.5182 81.4238 23.5273C81.4648 23.5365 81.5036 23.5524 81.54 23.5752C81.5765 23.598 81.6061 23.6276 81.6289 23.6641C81.6562 23.7005 81.6699 23.7438 81.6699 23.7939C81.6699 23.8304 81.6676 23.8577 81.6631 23.876C81.5902 24.1585 81.4762 24.4434 81.3213 24.7305C81.1709 25.013 81.016 25.2979 80.8564 25.585C80.8018 25.6852 80.7288 25.7832 80.6377 25.8789C80.5511 25.9746 80.4554 26.068 80.3506 26.1592C80.2458 26.2458 80.1364 26.3301 80.0225 26.4121C79.9085 26.4896 79.8014 26.5602 79.7012 26.624C79.528 26.7334 79.3389 26.8086 79.1338 26.8496C78.9287 26.8906 78.7305 26.9111 78.5391 26.9111C78.2428 26.9111 77.9785 26.8587 77.7461 26.7539C77.5182 26.6445 77.3245 26.4987 77.165 26.3164C77.0101 26.1296 76.8916 25.9131 76.8096 25.667C76.7275 25.4209 76.6865 25.1566 76.6865 24.874ZM83.0918 25.749C83.1602 25.4847 83.2422 25.1771 83.3379 24.8262C83.4336 24.4753 83.5339 24.1038 83.6387 23.7119C83.748 23.32 83.8574 22.9189 83.9668 22.5088C84.0762 22.0986 84.1787 21.6999 84.2744 21.3125C84.279 21.2943 84.2949 21.2646 84.3223 21.2236C84.3496 21.1781 84.3883 21.1348 84.4385 21.0938C84.4886 21.0482 84.5524 21.0094 84.6299 20.9775C84.7074 20.9456 84.7985 20.9297 84.9033 20.9297C84.9808 20.9297 85.056 20.9388 85.1289 20.957C85.2018 20.9707 85.2656 20.9935 85.3203 21.0254C85.3796 21.0573 85.4251 21.1006 85.457 21.1553C85.4935 21.2054 85.5117 21.2646 85.5117 21.333C85.5117 21.3467 85.5117 21.3626 85.5117 21.3809C85.5117 21.3945 85.5094 21.4082 85.5049 21.4219L85.3135 22.1465C85.0993 22.9577 84.8805 23.7712 84.6572 24.5869C84.4385 25.4027 84.2243 26.2207 84.0146 27.041C84.0055 27.0684 83.9919 27.1025 83.9736 27.1436C83.9554 27.1846 83.9303 27.2256 83.8984 27.2666C83.8665 27.3076 83.8278 27.3418 83.7822 27.3691C83.7367 27.3965 83.682 27.4102 83.6182 27.4102C83.4997 27.4102 83.3949 27.3851 83.3037 27.335C83.2126 27.2894 83.1351 27.2301 83.0713 27.1572C83.0075 27.0843 82.9596 27.0046 82.9277 26.918C82.8958 26.8314 82.8799 26.7493 82.8799 26.6719C82.8799 26.6491 82.8799 26.6286 82.8799 26.6104C82.8799 26.5921 82.8844 26.5716 82.8936 26.5488L83.0918 25.749ZM84.876 18.6738C84.8988 18.5781 84.9398 18.4619 84.999 18.3252C85.0583 18.1885 85.1631 18.0654 85.3135 17.9561C85.3864 17.915 85.4753 17.8786 85.5801 17.8467C85.6849 17.8102 85.7601 17.792 85.8057 17.792C85.8512 17.792 85.8968 17.8079 85.9424 17.8398C85.9925 17.8717 86.0358 17.9059 86.0723 17.9424C86.1178 17.988 86.1611 18.0381 86.2021 18.0928C86.3161 18.1019 86.389 18.1429 86.4209 18.2158C86.4574 18.2887 86.4756 18.3753 86.4756 18.4756C86.4756 18.5485 86.4688 18.6146 86.4551 18.6738C86.4414 18.7331 86.43 18.7809 86.4209 18.8174C86.3936 18.9131 86.3411 19.002 86.2637 19.084C86.1862 19.1615 86.0973 19.2298 85.9971 19.2891C85.8968 19.3438 85.792 19.387 85.6826 19.4189C85.5732 19.4508 85.4775 19.4668 85.3955 19.4668C85.2907 19.4668 85.2087 19.4486 85.1494 19.4121C85.0947 19.3757 85.0241 19.2982 84.9375 19.1797C84.8874 19.1113 84.8577 19.0589 84.8486 19.0225C84.8441 18.9814 84.8418 18.9473 84.8418 18.9199C84.8418 18.8698 84.8441 18.8265 84.8486 18.79C84.8577 18.749 84.8669 18.7103 84.876 18.6738Z" fill="#F9E3E3"/>
<path d="M15.8333 27.9998C14.9166 27.9998 14.1749 28.7498 14.1749 29.6665C14.1749 30.5832 14.9166 31.3332 15.8333 31.3332C16.7499 31.3332 17.4999 30.5832 17.4999 29.6665C17.4999 28.7498 16.7499 27.9998 15.8333 27.9998ZM10.8333 16.3332H12.4999L15.4999 22.6582L13.0166 27.1665H25.8333V25.4998H15.8333L16.7499 23.8332H23.9499L28.0916 16.3332H14.3416L13.5583 14.6665H10.8333V16.3332ZM24.1666 27.9998C23.2499 27.9998 22.5083 28.7498 22.5083 29.6665C22.5083 30.5832 23.2499 31.3332 24.1666 31.3332C25.0833 31.3332 25.8333 30.5832 25.8333 29.6665C25.8333 28.7498 25.0833 27.9998 24.1666 27.9998Z" fill="#4E0303"/>
</svg>
