<svg width="61" height="61" viewBox="0 0 61 61" fill="none" xmlns="http://www.w3.org/2000/svg">
<path d="M17.7915 45.75C14.9957 45.75 12.7336 48.0375 12.7336 50.8333C12.7336 53.6292 14.9957 55.9167 17.7915 55.9167C20.5873 55.9167 22.8748 53.6292 22.8748 50.8333C22.8748 48.0375 20.5873 45.75 17.7915 45.75ZM2.5415 10.1667H7.62484L16.7748 29.4579L9.20067 43.2083H48.2915V38.125H17.7915L20.5873 33.0417H42.5473L55.1794 10.1667H13.2419L10.8528 5.08333H2.5415V10.1667ZM43.2082 45.75C40.4123 45.75 38.1503 48.0375 38.1503 50.8333C38.1503 53.6292 40.4123 55.9167 43.2082 55.9167C46.004 55.9167 48.2915 53.6292 48.2915 50.8333C48.2915 48.0375 46.004 45.75 43.2082 45.75Z" fill="#4E0303"/>
</svg>
