<svg width="39" height="39" viewBox="0 0 39 39" fill="none" xmlns="http://www.w3.org/2000/svg">
<path d="M11.1157 29.3187C9.36891 29.3187 7.95562 30.7709 7.95562 32.5458C7.95562 34.3208 9.36891 35.773 11.1157 35.773C12.8624 35.773 14.2916 34.3208 14.2916 32.5458C14.2916 30.7709 12.8624 29.3187 11.1157 29.3187ZM26.9953 29.3187C25.2485 29.3187 23.8353 30.7709 23.8353 32.5458C23.8353 34.3208 25.2485 35.773 26.9953 35.773C28.7421 35.773 30.1712 34.3208 30.1712 32.5458C30.1712 30.7709 28.7421 29.3187 26.9953 29.3187ZM24.6928 21.2508C25.8837 21.2508 26.9318 20.5892 27.4717 19.5888L33.1566 9.11671C33.2904 8.87213 33.3591 8.59628 33.3558 8.31646C33.3525 8.03664 33.2773 7.76255 33.1378 7.5213C32.9982 7.28006 32.7991 7.08002 32.5601 6.94099C32.3211 6.80196 32.0505 6.72875 31.7751 6.72862H8.27322L6.78053 3.50146H1.58789V6.72862H4.76382L10.4805 18.9757L8.33673 22.9128C7.17752 25.075 8.70197 27.7051 11.1157 27.7051H30.1712V24.4779H11.1157L12.8624 21.2508H24.6928ZM9.78178 9.95577H29.0755L24.6928 18.0236H13.5453L9.78178 9.95577Z" fill="#F9E3E3"/>
</svg>
