<svg width="36" height="26" viewBox="0 0 36 26" fill="none" xmlns="http://www.w3.org/2000/svg">
<path d="M6.5446 25.8708V24.1499C6.5446 23.4901 6.11232 23.06 5.37137 23.06C5.00096 23.06 4.59962 23.1747 4.32174 23.5476C4.10574 23.2321 3.79707 23.06 3.33399 23.06C3.02518 23.06 2.71665 23.146 2.46957 23.4615V23.1174H1.82129V25.8708H2.46957V24.3506C2.46957 23.8631 2.74745 23.6336 3.17973 23.6336C3.61173 23.6336 3.82801 23.8918 3.82801 24.3506V25.8708H4.47629V24.3506C4.47629 23.8631 4.78482 23.6336 5.18616 23.6336C5.61845 23.6336 5.83445 23.8918 5.83445 24.3506V25.8708H6.5446ZM16.1452 23.1174H15.0957V22.2856H14.4474V23.1174H13.8609V23.6622H14.4473V24.9243C14.4473 25.5554 14.7252 25.9281 15.4661 25.9281C15.744 25.9281 16.0525 25.8422 16.2688 25.7274L16.0835 25.2111C15.8983 25.3258 15.6823 25.3546 15.5279 25.3546C15.2192 25.3546 15.0957 25.1825 15.0957 24.8956V23.6622H16.1452V23.1174ZM21.6403 23.0599C21.2699 23.0599 21.0229 23.2321 20.8685 23.4615V23.1174H20.2202V25.8708H20.8685V24.322C20.8685 23.8631 21.0845 23.605 21.4859 23.605C21.6093 23.605 21.7637 23.6337 21.8872 23.6623L22.0724 23.0888C21.9489 23.06 21.7637 23.06 21.6403 23.06V23.0599ZM13.3361 23.3468C13.0273 23.146 12.5951 23.06 12.1321 23.06C11.3912 23.06 10.8974 23.4042 10.8974 23.9491C10.8974 24.4081 11.2678 24.6661 11.9161 24.7522L12.2247 24.781C12.5643 24.8382 12.7495 24.9243 12.7495 25.0678C12.7495 25.2685 12.5026 25.4119 12.0703 25.4119C11.6382 25.4119 11.2986 25.2685 11.0824 25.1251L10.7738 25.584C11.1134 25.8134 11.5764 25.9281 12.0394 25.9281C12.9038 25.9281 13.3978 25.5554 13.3978 25.039C13.3978 24.5514 12.9965 24.2933 12.379 24.2073L12.0703 24.1785C11.7924 24.1498 11.5764 24.0926 11.5764 23.9205C11.5764 23.7197 11.7924 23.605 12.1321 23.605C12.5026 23.605 12.873 23.7483 13.0582 23.8344L13.3361 23.3468ZM30.5619 23.06C30.1914 23.06 29.9445 23.2321 29.7901 23.4615V23.1174H29.1418V25.8708H29.7901V24.322C29.7901 23.8631 30.0062 23.605 30.4074 23.605C30.531 23.605 30.6854 23.6337 30.8089 23.6623L30.9941 23.0888C30.8706 23.06 30.6854 23.06 30.5619 23.06ZM22.2886 24.4941C22.2886 25.3258 22.9059 25.9281 23.863 25.9281C24.2951 25.9281 24.6038 25.8421 24.9125 25.6127L24.6038 25.1251C24.3569 25.2972 24.1099 25.3832 23.8321 25.3832C23.3072 25.3832 22.9368 25.039 22.9368 24.4941C22.9368 23.9779 23.3072 23.6336 23.8321 23.605C24.1099 23.605 24.3569 23.6909 24.6038 23.8631L24.9125 23.3755C24.6038 23.146 24.2951 23.06 23.863 23.06C22.9059 23.06 22.2886 23.6623 22.2886 24.4941ZM28.2775 24.4941V23.1174H27.6292V23.4615C27.4131 23.2035 27.1044 23.06 26.7031 23.06C25.8696 23.06 25.2213 23.6623 25.2213 24.4941C25.2213 25.3258 25.8696 25.9281 26.7031 25.9281C27.1352 25.9281 27.444 25.7848 27.6292 25.5266V25.8708H28.2775V24.4941ZM25.9004 24.4941C25.9004 24.0065 26.24 23.605 26.7956 23.605C27.3204 23.605 27.6909 23.9779 27.6909 24.4941C27.6909 24.9817 27.3204 25.3832 26.7956 25.3832C26.24 25.3544 25.9004 24.9817 25.9004 24.4941ZM18.1519 23.06C17.2875 23.06 16.67 23.6336 16.67 24.4941C16.67 25.3546 17.2874 25.9281 18.1827 25.9281C18.6149 25.9281 19.0472 25.8134 19.3868 25.5554L19.0779 25.1251C18.831 25.2972 18.5223 25.4119 18.2137 25.4119C17.8123 25.4119 17.411 25.2398 17.3183 24.7521H19.5102V24.5228C19.5412 23.6336 18.9854 23.06 18.1518 23.06H18.1519ZM18.1519 23.5762C18.5531 23.5762 18.8312 23.8058 18.8927 24.236H17.3492C17.411 23.8631 17.6889 23.5762 18.1519 23.5762ZM34.2355 24.4941V22.0275H33.5872V23.4615C33.3711 23.2035 33.0624 23.06 32.6611 23.06C31.8276 23.06 31.1793 23.6623 31.1793 24.4941C31.1793 25.3258 31.8276 25.9281 32.6611 25.9281C33.0933 25.9281 33.402 25.7848 33.5872 25.5266V25.8708H34.2355V24.4941ZM31.8585 24.4941C31.8585 24.0065 32.198 23.605 32.7537 23.605C33.2785 23.605 33.6489 23.9779 33.6489 24.4941C33.6489 24.9817 33.2785 25.3832 32.7537 25.3832C32.198 25.3544 31.8585 24.9817 31.8585 24.4941ZM10.1872 24.4941V23.1174H9.53893V23.4615C9.32279 23.2035 9.01412 23.06 8.61277 23.06C7.77929 23.06 7.13101 23.6623 7.13101 24.4941C7.13101 25.3258 7.77929 25.9281 8.61277 25.9281C9.04506 25.9281 9.35373 25.7848 9.53893 25.5266V25.8708H10.1872V24.4941ZM7.77929 24.4941C7.77929 24.0065 8.1189 23.605 8.67451 23.605C9.19932 23.605 9.56987 23.9779 9.56987 24.4941C9.56987 24.9817 9.19932 25.3832 8.67451 25.3832C8.1189 25.3544 7.77929 24.9817 7.77929 24.4941Z" fill="black"/>
<path d="M13.1201 2.20837H22.8443V18.4422H13.1201V2.20837Z" fill="#FF5F00"/>
<path d="M13.7375 10.3254C13.7375 7.02705 15.4045 4.10147 17.9667 2.20843C16.0837 0.831739 13.7067 0 11.1136 0C4.97011 0 0 4.61768 0 10.3254C0 16.033 4.97011 20.6508 11.1135 20.6508C13.7066 20.6508 16.0836 19.8191 17.9667 18.4422C15.4045 16.5779 13.7375 13.6237 13.7375 10.3254Z" fill="#EB001B"/>
<path d="M35.9642 10.3254C35.9642 16.033 30.9941 20.6508 24.8508 20.6508C22.2577 20.6508 19.8807 19.8191 17.9976 18.4422C20.5907 16.5493 22.2269 13.6237 22.2269 10.3254C22.2269 7.02705 20.5597 4.10147 17.9976 2.20843C19.8805 0.831739 22.2577 0 24.8508 0C30.9941 0 35.9644 4.64642 35.9644 10.3254H35.9642Z" fill="#F79E1B"/>
</svg>
