<svg width="42" height="42" viewBox="0 0 42 42" fill="none" xmlns="http://www.w3.org/2000/svg">
<circle cx="21" cy="21" r="20" fill="#C3404E" stroke="#F2F2F2" stroke-width="2"/>
<path d="M18.026 28C24.064 28 27.367 22.997 27.367 18.666C27.367 18.526 27.367 18.384 27.361 18.244C28.0041 17.7784 28.5591 17.2021 29 16.542C28.3993 16.8068 27.7628 16.9814 27.111 17.06C27.7975 16.6496 28.3117 16.0039 28.558 15.243C27.913 15.6251 27.207 15.8933 26.471 16.036C25.9762 15.509 25.3214 15.1599 24.6081 15.0427C23.8948 14.9256 23.1627 15.0469 22.5253 15.3879C21.888 15.7289 21.3808 16.2706 21.0824 16.929C20.7841 17.5875 20.7112 18.3259 20.875 19.03C19.5697 18.9645 18.2928 18.6254 17.127 18.0347C15.9613 17.444 14.9327 16.6148 14.108 15.601C13.6893 16.324 13.5616 17.1794 13.7506 17.9932C13.9397 18.8071 14.4315 19.5185 15.126 19.983C14.6055 19.9653 14.0965 19.8255 13.64 19.575V19.62C13.6409 20.3774 13.9033 21.1114 14.3829 21.6977C14.8624 22.2841 15.5297 22.6868 16.272 22.838C15.9903 22.9156 15.6992 22.9543 15.407 22.953C15.201 22.9536 14.9954 22.9345 14.793 22.896C15.0028 23.548 15.4113 24.1181 15.9612 24.5264C16.5112 24.9347 17.1751 25.1608 17.86 25.173C16.6966 26.0868 15.2594 26.5824 13.78 26.58C13.5193 26.5811 13.2588 26.566 13 26.535C14.5015 27.4922 16.2453 28.0005 18.026 28Z" fill="white"/>
</svg>
