<svg width="61" height="20" viewBox="0 0 61 20" fill="none" xmlns="http://www.w3.org/2000/svg">
<path d="M31.5477 6.36824C31.5129 9.14318 33.9932 10.6916 35.8616 11.6123C37.7812 12.5569 38.4259 13.1627 38.4183 14.0075C38.404 15.3003 36.8871 15.8709 35.4677 15.8931C32.9912 15.9319 31.5513 15.2169 30.4066 14.6762L29.5145 18.8976C30.663 19.4328 32.7896 19.8996 34.9949 19.92C40.1716 19.92 43.5583 17.3359 43.5766 13.3294C43.5969 8.24462 36.6217 7.96318 36.6693 5.6904C36.6858 5.00125 37.3361 4.26583 38.761 4.07884C39.4663 3.98438 41.4133 3.91209 43.6207 4.94004L44.4871 0.855707C43.3 0.418598 41.7743 4.3869e-05 39.8747 4.3869e-05C35.0023 4.3869e-05 31.5754 2.61932 31.5477 6.36824ZM52.8122 0.351851C51.8669 0.351851 51.0703 0.909441 50.7148 1.7651L43.3202 19.62H48.4931L49.5225 16.7432H55.8436L56.4407 19.62H61L57.0214 0.351851H52.8122ZM53.5358 5.55691L55.0287 12.7923H50.9402L53.5358 5.55691ZM25.2759 0.352091L21.1985 19.6198H26.1278L30.2033 0.35161H25.2759V0.352091ZM17.9838 0.35161L12.8531 13.4665L10.7777 2.31547C10.5342 1.07065 9.57247 0.351851 8.5045 0.351851H0.117473L0 0.911369C1.72182 1.2892 3.67811 1.8986 4.86332 2.55065C5.58865 2.94896 5.79548 3.29715 6.03376 4.24366L9.96468 19.62H15.1737L23.16 0.351851H17.9838" fill="url(#paint0_linear_167_195)"/>
<defs>
<linearGradient id="paint0_linear_167_195" x1="28.0441" y1="20.3196" x2="28.6272" y2="-0.138125" gradientUnits="userSpaceOnUse">
<stop stop-color="#222357"/>
<stop offset="1" stop-color="#254AA5"/>
</linearGradient>
</defs>
</svg>
