<svg width="42" height="42" viewBox="0 0 42 42" fill="none" xmlns="http://www.w3.org/2000/svg">
<circle cx="21" cy="21" r="20" fill="#C3404E" stroke="#F2F2F2" stroke-width="2"/>
<path d="M23 21L19.5 23V19L23 21Z" fill="white" stroke="white" stroke-width="1.5" stroke-linecap="round" stroke-linejoin="round"/>
<path d="M11 21.707V20.292C11 17.397 11 15.949 11.905 15.018C12.811 14.086 14.237 14.046 17.088 13.965C18.438 13.927 19.818 13.9 21 13.9C22.181 13.9 23.561 13.927 24.912 13.965C27.763 14.046 29.189 14.086 30.094 15.018C31 15.949 31 17.398 31 20.292V21.707C31 24.603 31 26.05 30.095 26.982C29.189 27.913 27.764 27.954 24.912 28.034C23.562 28.073 22.182 28.1 21 28.1C19.6958 28.0961 18.3916 28.0741 17.088 28.034C14.237 27.954 12.811 27.914 11.905 26.982C11 26.05 11 24.602 11 21.708V21.707Z" stroke="white" stroke-width="1.5"/>
</svg>
